# xmcd
# 
# Track frame offsets:
#     150
#     13485
#     32040
#     63392
#     88565
#     119860
#     151032
#     165997
# 
# Disc length: 2532
# 
# Revision: 4
# Processed by: cddbd v1.5.2PL0 Copyright (c) Steve Scherf et al.
# Submitted via: fre:ac v1.0.17
# 
DISCID=6009e208
DTITLE=Dave Brubeck - My Favorite Things
DYEAR=1962
DGENRE=Jazz
TTITLE0=My Favorite Things
TTITLE1=Over and Over Again
TTITLE2=Why Can't I
TTITLE3=Little Girl Blue
TTITLE4=This Can't Be Love
TTITLE5=My Romance
TTITLE6=The Circus on Parade
TTITLE7=The Most Beautiful Girl in the World
EXTD=YEAR: 1962
EXTT0=
EXTT1=
EXTT2=
EXTT3=
EXTT4=
EXTT5=
EXTT6=
EXTT7=
PLAYORDER=
